<svg xmlns="http://www.w3.org/2000/svg" xmlns:xlink="http://www.w3.org/1999/xlink" width="64" zoomAndPan="magnify" viewBox="0 0 48 48" height="64" preserveAspectRatio="xMidYMid meet" version="1.0"><defs><g/><clipPath id="40d5d30ec3"><path d="M 0.488281 0 L 47.507812 0 L 47.507812 47.019531 L 0.488281 47.019531 Z M 0.488281 0 " clip-rule="nonzero"/></clipPath></defs><g clip-path="url(#40d5d30ec3)"><path fill="#ffffff" d="M 0.488281 0 L 47.511719 0 L 47.511719 47.019531 L 0.488281 47.019531 Z M 0.488281 0 " fill-opacity="1" fill-rule="nonzero"/><path fill="#ffffff" d="M 0.488281 0 L 47.511719 0 L 47.511719 47.019531 L 0.488281 47.019531 Z M 0.488281 0 " fill-opacity="1" fill-rule="nonzero"/></g><g fill="#000000" fill-opacity="1"><g transform="translate(2.216709, 28.29829)"><g><path d="M 8.984375 0 L 4.46875 -5.9375 L 4.46875 0 L 1.1875 0 L 1.1875 -13.453125 L 4.46875 -13.453125 L 4.46875 -7.546875 L 8.953125 -13.453125 L 12.796875 -13.453125 L 7.578125 -6.859375 L 12.984375 0 Z M 8.984375 0 "/></g></g></g><g fill="#000000" fill-opacity="1"><g transform="translate(15.565983, 28.29829)"><g><path d="M 9.328125 -6.890625 C 10.109375 -6.722656 10.734375 -6.335938 11.203125 -5.734375 C 11.679688 -5.128906 11.921875 -4.4375 11.921875 -3.65625 C 11.921875 -2.53125 11.523438 -1.640625 10.734375 -0.984375 C 9.953125 -0.328125 8.859375 0 7.453125 0 L 1.1875 0 L 1.1875 -13.453125 L 7.234375 -13.453125 C 8.609375 -13.453125 9.679688 -13.140625 10.453125 -12.515625 C 11.222656 -11.890625 11.609375 -11.039062 11.609375 -9.96875 C 11.609375 -9.175781 11.398438 -8.515625 10.984375 -7.984375 C 10.566406 -7.460938 10.015625 -7.097656 9.328125 -6.890625 Z M 4.46875 -8 L 6.609375 -8 C 7.140625 -8 7.550781 -8.117188 7.84375 -8.359375 C 8.132812 -8.597656 8.28125 -8.945312 8.28125 -9.40625 C 8.28125 -9.863281 8.132812 -10.210938 7.84375 -10.453125 C 7.550781 -10.703125 7.140625 -10.828125 6.609375 -10.828125 L 4.46875 -10.828125 Z M 6.875 -2.640625 C 7.425781 -2.640625 7.847656 -2.765625 8.140625 -3.015625 C 8.441406 -3.265625 8.59375 -3.625 8.59375 -4.09375 C 8.59375 -4.570312 8.4375 -4.941406 8.125 -5.203125 C 7.8125 -5.472656 7.382812 -5.609375 6.84375 -5.609375 L 4.46875 -5.609375 L 4.46875 -2.640625 Z M 6.875 -2.640625 "/></g></g></g><g fill="#000000" fill-opacity="1"><g transform="translate(28.187454, 28.29829)"><g><path d="M 16.421875 -13.453125 L 16.421875 0 L 13.140625 0 L 13.140625 -8.0625 L 10.140625 0 L 7.484375 0 L 4.46875 -8.078125 L 4.46875 0 L 1.1875 0 L 1.1875 -13.453125 L 5.0625 -13.453125 L 8.828125 -4.140625 L 12.5625 -13.453125 Z M 16.421875 -13.453125 "/></g></g></g></svg>